<mxfile host="Electron" agent="Mozilla/5.0 (Windows NT 10.0; Win64; x64) AppleWebKit/537.36 (KHTML, like Gecko) draw.io/28.0.4 Chrome/138.0.7204.97 Electron/37.2.1 Safari/537.36" version="28.0.4">
  <diagram name="Page-1" id="zEai2dODWMxxbHuS6q-c">
    <mxGraphModel dx="2008" dy="3002" grid="1" gridSize="10" guides="1" tooltips="1" connect="1" arrows="1" fold="1" page="1" pageScale="1" pageWidth="850" pageHeight="1100" math="0" shadow="0">
      <root>
        <mxCell id="0" />
        <mxCell id="1" parent="0" />
        <mxCell id="vILM-5j1iDqQcQwP7x-g-196" style="edgeStyle=orthogonalEdgeStyle;rounded=0;orthogonalLoop=1;jettySize=auto;html=1;entryX=0.5;entryY=0;entryDx=0;entryDy=0;" edge="1" parent="1" source="vILM-5j1iDqQcQwP7x-g-1" target="vILM-5j1iDqQcQwP7x-g-2">
          <mxGeometry relative="1" as="geometry" />
        </mxCell>
        <mxCell id="vILM-5j1iDqQcQwP7x-g-1" value="Start" style="strokeWidth=2;html=1;shape=mxgraph.flowchart.terminator;whiteSpace=wrap;strokeColor=#0000FF;" vertex="1" parent="1">
          <mxGeometry x="453.75" y="-1080" width="75.5" height="40" as="geometry" />
        </mxCell>
        <mxCell id="vILM-5j1iDqQcQwP7x-g-197" style="edgeStyle=orthogonalEdgeStyle;rounded=0;orthogonalLoop=1;jettySize=auto;html=1;entryX=0.5;entryY=0;entryDx=0;entryDy=0;" edge="1" parent="1" source="vILM-5j1iDqQcQwP7x-g-2" target="vILM-5j1iDqQcQwP7x-g-3">
          <mxGeometry relative="1" as="geometry" />
        </mxCell>
        <mxCell id="vILM-5j1iDqQcQwP7x-g-2" value="Declarations&lt;div&gt;&lt;span style=&quot;white-space: pre;&quot;&gt;&#x9;&lt;/span&gt;string clue&lt;br&gt;&lt;/div&gt;&lt;div&gt;&lt;span style=&quot;white-space: pre;&quot;&gt;&#x9;&lt;/span&gt;num cluePointValue&lt;br&gt;&lt;/div&gt;&lt;div&gt;&lt;span style=&quot;white-space: pre;&quot;&gt;&#x9;&lt;/span&gt;string clueFinal&lt;br&gt;&lt;/div&gt;&lt;div&gt;&lt;span style=&quot;white-space: pre;&quot;&gt;&#x9;&lt;/span&gt;num finalPointValue&lt;br&gt;&lt;/div&gt;&lt;div&gt;&lt;span style=&quot;white-space: pre;&quot;&gt;&#x9;&lt;/span&gt;num playerOnePoints&lt;br&gt;&lt;/div&gt;&lt;div&gt;&lt;span style=&quot;white-space: pre;&quot;&gt;&#x9;&lt;/span&gt;num playerTwoPoints&lt;br&gt;&lt;/div&gt;&lt;div&gt;&lt;span style=&quot;white-space: pre;&quot;&gt;&#x9;&lt;/span&gt;num playerThreePoints&lt;br&gt;&lt;/div&gt;&lt;div&gt;&lt;span style=&quot;white-space: pre;&quot;&gt;&#x9;&lt;/span&gt;num finalWager&lt;br&gt;&lt;/div&gt;&lt;div&gt;&lt;span style=&quot;white-space: pre;&quot;&gt;&#x9;&lt;/span&gt;string Final = clueNo51&lt;/div&gt;" style="rounded=0;whiteSpace=wrap;html=1;align=left;" vertex="1" parent="1">
          <mxGeometry x="408" y="-1010" width="168" height="150" as="geometry" />
        </mxCell>
        <mxCell id="vILM-5j1iDqQcQwP7x-g-106" style="edgeStyle=orthogonalEdgeStyle;rounded=0;orthogonalLoop=1;jettySize=auto;html=1;entryX=0.5;entryY=0;entryDx=0;entryDy=0;" edge="1" parent="1" source="vILM-5j1iDqQcQwP7x-g-3" target="vILM-5j1iDqQcQwP7x-g-102">
          <mxGeometry relative="1" as="geometry" />
        </mxCell>
        <mxCell id="vILM-5j1iDqQcQwP7x-g-3" value="output host announces clue" style="shape=parallelogram;perimeter=parallelogramPerimeter;whiteSpace=wrap;html=1;fixedSize=1;strokeColor=#DC7135;" vertex="1" parent="1">
          <mxGeometry x="389" y="-830" width="205" height="30" as="geometry" />
        </mxCell>
        <mxCell id="vILM-5j1iDqQcQwP7x-g-4" value="playerOne answers?" style="rhombus;whiteSpace=wrap;html=1;strokeColor=#99CCFF;" vertex="1" parent="1">
          <mxGeometry x="1147.5" y="-810" width="80" height="80" as="geometry" />
        </mxCell>
        <mxCell id="vILM-5j1iDqQcQwP7x-g-5" value="answer correct?" style="rhombus;whiteSpace=wrap;html=1;strokeColor=#99CCFF;" vertex="1" parent="1">
          <mxGeometry x="-655" y="-975" width="80" height="80" as="geometry" />
        </mxCell>
        <mxCell id="vILM-5j1iDqQcQwP7x-g-6" value="calculate playerOnePoints = playerOnePoints + pointValue" style="rounded=0;whiteSpace=wrap;html=1;" vertex="1" parent="1">
          <mxGeometry x="-805" y="-865" width="170" height="40" as="geometry" />
        </mxCell>
        <mxCell id="vILM-5j1iDqQcQwP7x-g-62" style="edgeStyle=orthogonalEdgeStyle;rounded=0;orthogonalLoop=1;jettySize=auto;html=1;entryX=0.5;entryY=0;entryDx=0;entryDy=0;" edge="1" parent="1" source="vILM-5j1iDqQcQwP7x-g-8" target="vILM-5j1iDqQcQwP7x-g-59">
          <mxGeometry relative="1" as="geometry" />
        </mxCell>
        <mxCell id="vILM-5j1iDqQcQwP7x-g-8" value="playerOne()" style="rounded=0;whiteSpace=wrap;html=1;strokeColor=light-dark(#0000FF,#EDEDED);" vertex="1" parent="1">
          <mxGeometry x="946.25" y="-690" width="90" height="50" as="geometry" />
        </mxCell>
        <mxCell id="vILM-5j1iDqQcQwP7x-g-9" value="" style="rounded=0;whiteSpace=wrap;html=1;strokeColor=light-dark(#0000FF,#EDEDED);" vertex="1" parent="1">
          <mxGeometry x="946.25" y="-700" width="90" height="10" as="geometry" />
        </mxCell>
        <mxCell id="vILM-5j1iDqQcQwP7x-g-11" value="calculate playerOnePoints = playerOnePoints - pointValue" style="rounded=0;whiteSpace=wrap;html=1;" vertex="1" parent="1">
          <mxGeometry x="-595" y="-865" width="170" height="40" as="geometry" />
        </mxCell>
        <mxCell id="vILM-5j1iDqQcQwP7x-g-21" value="" style="edgeStyle=orthogonalEdgeStyle;rounded=0;orthogonalLoop=1;jettySize=auto;html=1;" edge="1" parent="1" source="vILM-5j1iDqQcQwP7x-g-12" target="vILM-5j1iDqQcQwP7x-g-13">
          <mxGeometry relative="1" as="geometry" />
        </mxCell>
        <mxCell id="vILM-5j1iDqQcQwP7x-g-12" value="output playerOnePoints" style="shape=parallelogram;perimeter=parallelogramPerimeter;whiteSpace=wrap;html=1;fixedSize=1;strokeColor=#DC7135;" vertex="1" parent="1">
          <mxGeometry x="-695" y="-760" width="160" height="30" as="geometry" />
        </mxCell>
        <mxCell id="vILM-5j1iDqQcQwP7x-g-13" value="Return" style="strokeWidth=2;html=1;shape=mxgraph.flowchart.terminator;whiteSpace=wrap;strokeColor=#0000FF;" vertex="1" parent="1">
          <mxGeometry x="-665" y="-685" width="100" height="25" as="geometry" />
        </mxCell>
        <mxCell id="vILM-5j1iDqQcQwP7x-g-16" value="" style="edgeStyle=segmentEdgeStyle;endArrow=classic;html=1;curved=0;rounded=0;endSize=8;startSize=8;exitX=0;exitY=0.5;exitDx=0;exitDy=0;entryX=0.5;entryY=0;entryDx=0;entryDy=0;" edge="1" parent="1" source="vILM-5j1iDqQcQwP7x-g-5" target="vILM-5j1iDqQcQwP7x-g-6">
          <mxGeometry width="50" height="50" relative="1" as="geometry">
            <mxPoint x="-775" y="-950" as="sourcePoint" />
            <mxPoint x="-725" y="-1000" as="targetPoint" />
          </mxGeometry>
        </mxCell>
        <mxCell id="vILM-5j1iDqQcQwP7x-g-20" style="edgeStyle=orthogonalEdgeStyle;rounded=0;orthogonalLoop=1;jettySize=auto;html=1;entryX=0.5;entryY=0;entryDx=0;entryDy=0;" edge="1" parent="1" source="vILM-5j1iDqQcQwP7x-g-19" target="vILM-5j1iDqQcQwP7x-g-12">
          <mxGeometry relative="1" as="geometry" />
        </mxCell>
        <mxCell id="vILM-5j1iDqQcQwP7x-g-19" value="" style="shape=partialRectangle;whiteSpace=wrap;html=1;bottom=1;right=1;left=1;top=0;fillColor=none;routingCenterX=-0.5;" vertex="1" parent="1">
          <mxGeometry x="-715" y="-820" width="200" height="30" as="geometry" />
        </mxCell>
        <mxCell id="vILM-5j1iDqQcQwP7x-g-23" style="edgeStyle=orthogonalEdgeStyle;rounded=0;orthogonalLoop=1;jettySize=auto;html=1;entryX=0.5;entryY=0;entryDx=0;entryDy=0;" edge="1" parent="1" source="vILM-5j1iDqQcQwP7x-g-22" target="vILM-5j1iDqQcQwP7x-g-5">
          <mxGeometry relative="1" as="geometry" />
        </mxCell>
        <mxCell id="vILM-5j1iDqQcQwP7x-g-22" value="playerOne()" style="strokeWidth=2;html=1;shape=mxgraph.flowchart.terminator;whiteSpace=wrap;strokeColor=#0000FF;" vertex="1" parent="1">
          <mxGeometry x="-655" y="-1045" width="80" height="30" as="geometry" />
        </mxCell>
        <mxCell id="vILM-5j1iDqQcQwP7x-g-24" value="" style="edgeStyle=segmentEdgeStyle;endArrow=classic;html=1;curved=0;rounded=0;endSize=8;startSize=8;exitX=1;exitY=0.5;exitDx=0;exitDy=0;entryX=0.5;entryY=0;entryDx=0;entryDy=0;" edge="1" parent="1" source="vILM-5j1iDqQcQwP7x-g-5" target="vILM-5j1iDqQcQwP7x-g-11">
          <mxGeometry width="50" height="50" relative="1" as="geometry">
            <mxPoint x="-525" y="-930" as="sourcePoint" />
            <mxPoint x="-475" y="-980" as="targetPoint" />
          </mxGeometry>
        </mxCell>
        <mxCell id="vILM-5j1iDqQcQwP7x-g-25" value="YES" style="text;html=1;align=center;verticalAlign=middle;resizable=0;points=[];autosize=1;strokeColor=none;fillColor=none;fontStyle=1" vertex="1" parent="1">
          <mxGeometry x="-705" y="-975" width="50" height="30" as="geometry" />
        </mxCell>
        <mxCell id="vILM-5j1iDqQcQwP7x-g-27" value="&lt;b&gt;NO&lt;/b&gt;" style="text;html=1;align=center;verticalAlign=middle;resizable=0;points=[];autosize=1;strokeColor=none;fillColor=none;" vertex="1" parent="1">
          <mxGeometry x="-575" y="-975" width="40" height="30" as="geometry" />
        </mxCell>
        <mxCell id="vILM-5j1iDqQcQwP7x-g-28" value="answer correct?" style="rhombus;whiteSpace=wrap;html=1;strokeColor=#99CCFF;" vertex="1" parent="1">
          <mxGeometry x="-655" y="-545" width="80" height="80" as="geometry" />
        </mxCell>
        <mxCell id="vILM-5j1iDqQcQwP7x-g-29" value="calculate playerTwoPoints = playerTwoPoints + pointValue" style="rounded=0;whiteSpace=wrap;html=1;" vertex="1" parent="1">
          <mxGeometry x="-805" y="-435" width="170" height="40" as="geometry" />
        </mxCell>
        <mxCell id="vILM-5j1iDqQcQwP7x-g-30" value="calculate playerTwoPoints = playerTwoPoints - pointValue" style="rounded=0;whiteSpace=wrap;html=1;" vertex="1" parent="1">
          <mxGeometry x="-595" y="-435" width="170" height="40" as="geometry" />
        </mxCell>
        <mxCell id="vILM-5j1iDqQcQwP7x-g-31" value="" style="edgeStyle=orthogonalEdgeStyle;rounded=0;orthogonalLoop=1;jettySize=auto;html=1;" edge="1" parent="1" source="vILM-5j1iDqQcQwP7x-g-32" target="vILM-5j1iDqQcQwP7x-g-33">
          <mxGeometry relative="1" as="geometry" />
        </mxCell>
        <mxCell id="vILM-5j1iDqQcQwP7x-g-32" value="output playerTwoPoints" style="shape=parallelogram;perimeter=parallelogramPerimeter;whiteSpace=wrap;html=1;fixedSize=1;strokeColor=#DC7135;" vertex="1" parent="1">
          <mxGeometry x="-695" y="-330" width="160" height="30" as="geometry" />
        </mxCell>
        <mxCell id="vILM-5j1iDqQcQwP7x-g-33" value="Return" style="strokeWidth=2;html=1;shape=mxgraph.flowchart.terminator;whiteSpace=wrap;strokeColor=#0000FF;" vertex="1" parent="1">
          <mxGeometry x="-665" y="-255" width="100" height="25" as="geometry" />
        </mxCell>
        <mxCell id="vILM-5j1iDqQcQwP7x-g-34" value="" style="edgeStyle=segmentEdgeStyle;endArrow=classic;html=1;curved=0;rounded=0;endSize=8;startSize=8;exitX=0;exitY=0.5;exitDx=0;exitDy=0;entryX=0.5;entryY=0;entryDx=0;entryDy=0;" edge="1" parent="1" source="vILM-5j1iDqQcQwP7x-g-28" target="vILM-5j1iDqQcQwP7x-g-29">
          <mxGeometry width="50" height="50" relative="1" as="geometry">
            <mxPoint x="-775" y="-520" as="sourcePoint" />
            <mxPoint x="-725" y="-570" as="targetPoint" />
          </mxGeometry>
        </mxCell>
        <mxCell id="vILM-5j1iDqQcQwP7x-g-35" style="edgeStyle=orthogonalEdgeStyle;rounded=0;orthogonalLoop=1;jettySize=auto;html=1;entryX=0.5;entryY=0;entryDx=0;entryDy=0;" edge="1" parent="1" source="vILM-5j1iDqQcQwP7x-g-36" target="vILM-5j1iDqQcQwP7x-g-32">
          <mxGeometry relative="1" as="geometry" />
        </mxCell>
        <mxCell id="vILM-5j1iDqQcQwP7x-g-36" value="" style="shape=partialRectangle;whiteSpace=wrap;html=1;bottom=1;right=1;left=1;top=0;fillColor=none;routingCenterX=-0.5;" vertex="1" parent="1">
          <mxGeometry x="-715" y="-390" width="200" height="30" as="geometry" />
        </mxCell>
        <mxCell id="vILM-5j1iDqQcQwP7x-g-37" style="edgeStyle=orthogonalEdgeStyle;rounded=0;orthogonalLoop=1;jettySize=auto;html=1;entryX=0.5;entryY=0;entryDx=0;entryDy=0;" edge="1" parent="1" source="vILM-5j1iDqQcQwP7x-g-38" target="vILM-5j1iDqQcQwP7x-g-28">
          <mxGeometry relative="1" as="geometry" />
        </mxCell>
        <mxCell id="vILM-5j1iDqQcQwP7x-g-38" value="playerTwo()" style="strokeWidth=2;html=1;shape=mxgraph.flowchart.terminator;whiteSpace=wrap;strokeColor=#0000FF;" vertex="1" parent="1">
          <mxGeometry x="-655" y="-615" width="80" height="30" as="geometry" />
        </mxCell>
        <mxCell id="vILM-5j1iDqQcQwP7x-g-39" value="" style="edgeStyle=segmentEdgeStyle;endArrow=classic;html=1;curved=0;rounded=0;endSize=8;startSize=8;exitX=1;exitY=0.5;exitDx=0;exitDy=0;entryX=0.5;entryY=0;entryDx=0;entryDy=0;" edge="1" parent="1" source="vILM-5j1iDqQcQwP7x-g-28" target="vILM-5j1iDqQcQwP7x-g-30">
          <mxGeometry width="50" height="50" relative="1" as="geometry">
            <mxPoint x="-525" y="-500" as="sourcePoint" />
            <mxPoint x="-475" y="-550" as="targetPoint" />
          </mxGeometry>
        </mxCell>
        <mxCell id="vILM-5j1iDqQcQwP7x-g-40" value="YES" style="text;html=1;align=center;verticalAlign=middle;resizable=0;points=[];autosize=1;strokeColor=none;fillColor=none;fontStyle=1" vertex="1" parent="1">
          <mxGeometry x="-705" y="-545" width="50" height="30" as="geometry" />
        </mxCell>
        <mxCell id="vILM-5j1iDqQcQwP7x-g-41" value="&lt;b&gt;NO&lt;/b&gt;" style="text;html=1;align=center;verticalAlign=middle;resizable=0;points=[];autosize=1;strokeColor=none;fillColor=none;" vertex="1" parent="1">
          <mxGeometry x="-575" y="-545" width="40" height="30" as="geometry" />
        </mxCell>
        <mxCell id="vILM-5j1iDqQcQwP7x-g-45" value="answer correct?" style="rhombus;whiteSpace=wrap;html=1;strokeColor=#99CCFF;" vertex="1" parent="1">
          <mxGeometry x="-655" y="-125" width="80" height="80" as="geometry" />
        </mxCell>
        <mxCell id="vILM-5j1iDqQcQwP7x-g-46" value="calculate playerThreePoints = playerThreePoints + pointValue" style="rounded=0;whiteSpace=wrap;html=1;" vertex="1" parent="1">
          <mxGeometry x="-805" y="-15" width="170" height="40" as="geometry" />
        </mxCell>
        <mxCell id="vILM-5j1iDqQcQwP7x-g-47" value="calculate playerThreePoints = playerThreePoints - pointValue" style="rounded=0;whiteSpace=wrap;html=1;" vertex="1" parent="1">
          <mxGeometry x="-595" y="-15" width="170" height="40" as="geometry" />
        </mxCell>
        <mxCell id="vILM-5j1iDqQcQwP7x-g-48" value="" style="edgeStyle=orthogonalEdgeStyle;rounded=0;orthogonalLoop=1;jettySize=auto;html=1;" edge="1" parent="1" source="vILM-5j1iDqQcQwP7x-g-49" target="vILM-5j1iDqQcQwP7x-g-50">
          <mxGeometry relative="1" as="geometry" />
        </mxCell>
        <mxCell id="vILM-5j1iDqQcQwP7x-g-49" value="output playerThreePoints" style="shape=parallelogram;perimeter=parallelogramPerimeter;whiteSpace=wrap;html=1;fixedSize=1;strokeColor=#DC7135;" vertex="1" parent="1">
          <mxGeometry x="-695" y="90" width="160" height="30" as="geometry" />
        </mxCell>
        <mxCell id="vILM-5j1iDqQcQwP7x-g-50" value="Return" style="strokeWidth=2;html=1;shape=mxgraph.flowchart.terminator;whiteSpace=wrap;strokeColor=#0000FF;" vertex="1" parent="1">
          <mxGeometry x="-665" y="165" width="100" height="25" as="geometry" />
        </mxCell>
        <mxCell id="vILM-5j1iDqQcQwP7x-g-51" value="" style="edgeStyle=segmentEdgeStyle;endArrow=classic;html=1;curved=0;rounded=0;endSize=8;startSize=8;exitX=0;exitY=0.5;exitDx=0;exitDy=0;entryX=0.5;entryY=0;entryDx=0;entryDy=0;" edge="1" parent="1" source="vILM-5j1iDqQcQwP7x-g-45" target="vILM-5j1iDqQcQwP7x-g-46">
          <mxGeometry width="50" height="50" relative="1" as="geometry">
            <mxPoint x="-775" y="-100" as="sourcePoint" />
            <mxPoint x="-725" y="-150" as="targetPoint" />
          </mxGeometry>
        </mxCell>
        <mxCell id="vILM-5j1iDqQcQwP7x-g-52" style="edgeStyle=orthogonalEdgeStyle;rounded=0;orthogonalLoop=1;jettySize=auto;html=1;entryX=0.5;entryY=0;entryDx=0;entryDy=0;" edge="1" parent="1" source="vILM-5j1iDqQcQwP7x-g-53" target="vILM-5j1iDqQcQwP7x-g-49">
          <mxGeometry relative="1" as="geometry" />
        </mxCell>
        <mxCell id="vILM-5j1iDqQcQwP7x-g-53" value="" style="shape=partialRectangle;whiteSpace=wrap;html=1;bottom=1;right=1;left=1;top=0;fillColor=none;routingCenterX=-0.5;" vertex="1" parent="1">
          <mxGeometry x="-715" y="30" width="200" height="30" as="geometry" />
        </mxCell>
        <mxCell id="vILM-5j1iDqQcQwP7x-g-54" style="edgeStyle=orthogonalEdgeStyle;rounded=0;orthogonalLoop=1;jettySize=auto;html=1;entryX=0.5;entryY=0;entryDx=0;entryDy=0;" edge="1" parent="1" source="vILM-5j1iDqQcQwP7x-g-55" target="vILM-5j1iDqQcQwP7x-g-45">
          <mxGeometry relative="1" as="geometry" />
        </mxCell>
        <mxCell id="vILM-5j1iDqQcQwP7x-g-55" value="playerThree()" style="strokeWidth=2;html=1;shape=mxgraph.flowchart.terminator;whiteSpace=wrap;strokeColor=#0000FF;" vertex="1" parent="1">
          <mxGeometry x="-655" y="-195" width="80" height="30" as="geometry" />
        </mxCell>
        <mxCell id="vILM-5j1iDqQcQwP7x-g-56" value="" style="edgeStyle=segmentEdgeStyle;endArrow=classic;html=1;curved=0;rounded=0;endSize=8;startSize=8;exitX=1;exitY=0.5;exitDx=0;exitDy=0;entryX=0.5;entryY=0;entryDx=0;entryDy=0;" edge="1" parent="1" source="vILM-5j1iDqQcQwP7x-g-45" target="vILM-5j1iDqQcQwP7x-g-47">
          <mxGeometry width="50" height="50" relative="1" as="geometry">
            <mxPoint x="-525" y="-80" as="sourcePoint" />
            <mxPoint x="-475" y="-130" as="targetPoint" />
          </mxGeometry>
        </mxCell>
        <mxCell id="vILM-5j1iDqQcQwP7x-g-57" value="YES" style="text;html=1;align=center;verticalAlign=middle;resizable=0;points=[];autosize=1;strokeColor=none;fillColor=none;fontStyle=1" vertex="1" parent="1">
          <mxGeometry x="-705" y="-125" width="50" height="30" as="geometry" />
        </mxCell>
        <mxCell id="vILM-5j1iDqQcQwP7x-g-58" value="&lt;b&gt;NO&lt;/b&gt;" style="text;html=1;align=center;verticalAlign=middle;resizable=0;points=[];autosize=1;strokeColor=none;fillColor=none;" vertex="1" parent="1">
          <mxGeometry x="-575" y="-125" width="40" height="30" as="geometry" />
        </mxCell>
        <mxCell id="vILM-5j1iDqQcQwP7x-g-61" style="edgeStyle=orthogonalEdgeStyle;rounded=0;orthogonalLoop=1;jettySize=auto;html=1;entryX=0.5;entryY=0;entryDx=0;entryDy=0;" edge="1" parent="1" source="vILM-5j1iDqQcQwP7x-g-59" target="vILM-5j1iDqQcQwP7x-g-60">
          <mxGeometry relative="1" as="geometry" />
        </mxCell>
        <mxCell id="vILM-5j1iDqQcQwP7x-g-59" value="input playerOne choose next clue" style="shape=parallelogram;perimeter=parallelogramPerimeter;whiteSpace=wrap;html=1;fixedSize=1;strokeColor=#DC7135;" vertex="1" parent="1">
          <mxGeometry x="880" y="-620" width="222.5" height="32.5" as="geometry" />
        </mxCell>
        <mxCell id="vILM-5j1iDqQcQwP7x-g-60" value="output host announces next clue" style="shape=parallelogram;perimeter=parallelogramPerimeter;whiteSpace=wrap;html=1;fixedSize=1;strokeColor=#DC7135;" vertex="1" parent="1">
          <mxGeometry x="888.75" y="-565" width="205" height="30" as="geometry" />
        </mxCell>
        <mxCell id="vILM-5j1iDqQcQwP7x-g-63" value="" style="edgeStyle=segmentEdgeStyle;endArrow=classic;html=1;curved=0;rounded=0;endSize=8;startSize=8;exitX=0;exitY=0.5;exitDx=0;exitDy=0;entryX=0.5;entryY=0;entryDx=0;entryDy=0;" edge="1" parent="1" source="vILM-5j1iDqQcQwP7x-g-4" target="vILM-5j1iDqQcQwP7x-g-9">
          <mxGeometry width="50" height="50" relative="1" as="geometry">
            <mxPoint x="1037.5" y="-740" as="sourcePoint" />
            <mxPoint x="1087.5" y="-790" as="targetPoint" />
          </mxGeometry>
        </mxCell>
        <mxCell id="vILM-5j1iDqQcQwP7x-g-64" value="playerTwo answers?" style="rhombus;whiteSpace=wrap;html=1;strokeColor=#99CCFF;" vertex="1" parent="1">
          <mxGeometry x="1370" y="-700" width="80" height="80" as="geometry" />
        </mxCell>
        <mxCell id="vILM-5j1iDqQcQwP7x-g-65" style="edgeStyle=orthogonalEdgeStyle;rounded=0;orthogonalLoop=1;jettySize=auto;html=1;entryX=0.5;entryY=0;entryDx=0;entryDy=0;" edge="1" parent="1" source="vILM-5j1iDqQcQwP7x-g-66" target="vILM-5j1iDqQcQwP7x-g-69">
          <mxGeometry relative="1" as="geometry" />
        </mxCell>
        <mxCell id="vILM-5j1iDqQcQwP7x-g-66" value="playerTwo()" style="rounded=0;whiteSpace=wrap;html=1;strokeColor=light-dark(#0000FF,#EDEDED);" vertex="1" parent="1">
          <mxGeometry x="1213.75" y="-570" width="90" height="50" as="geometry" />
        </mxCell>
        <mxCell id="vILM-5j1iDqQcQwP7x-g-67" value="" style="rounded=0;whiteSpace=wrap;html=1;strokeColor=light-dark(#0000FF,#EDEDED);" vertex="1" parent="1">
          <mxGeometry x="1213.75" y="-580" width="90" height="10" as="geometry" />
        </mxCell>
        <mxCell id="vILM-5j1iDqQcQwP7x-g-68" style="edgeStyle=orthogonalEdgeStyle;rounded=0;orthogonalLoop=1;jettySize=auto;html=1;entryX=0.5;entryY=0;entryDx=0;entryDy=0;" edge="1" parent="1" source="vILM-5j1iDqQcQwP7x-g-69" target="vILM-5j1iDqQcQwP7x-g-70">
          <mxGeometry relative="1" as="geometry" />
        </mxCell>
        <mxCell id="vILM-5j1iDqQcQwP7x-g-69" value="input playerTwo choose next clue" style="shape=parallelogram;perimeter=parallelogramPerimeter;whiteSpace=wrap;html=1;fixedSize=1;strokeColor=#DC7135;" vertex="1" parent="1">
          <mxGeometry x="1147.5" y="-500" width="222.5" height="32.5" as="geometry" />
        </mxCell>
        <mxCell id="vILM-5j1iDqQcQwP7x-g-70" value="output host announces next clue" style="shape=parallelogram;perimeter=parallelogramPerimeter;whiteSpace=wrap;html=1;fixedSize=1;strokeColor=#DC7135;" vertex="1" parent="1">
          <mxGeometry x="1156.25" y="-445" width="205" height="30" as="geometry" />
        </mxCell>
        <mxCell id="vILM-5j1iDqQcQwP7x-g-71" value="" style="edgeStyle=segmentEdgeStyle;endArrow=classic;html=1;curved=0;rounded=0;endSize=8;startSize=8;exitX=0;exitY=0.5;exitDx=0;exitDy=0;entryX=0.5;entryY=0;entryDx=0;entryDy=0;" edge="1" parent="1" source="vILM-5j1iDqQcQwP7x-g-64" target="vILM-5j1iDqQcQwP7x-g-67">
          <mxGeometry width="50" height="50" relative="1" as="geometry">
            <mxPoint x="1260" y="-630" as="sourcePoint" />
            <mxPoint x="1310" y="-680" as="targetPoint" />
          </mxGeometry>
        </mxCell>
        <mxCell id="vILM-5j1iDqQcQwP7x-g-72" value="" style="edgeStyle=segmentEdgeStyle;endArrow=classic;html=1;curved=0;rounded=0;endSize=8;startSize=8;exitX=1;exitY=0.5;exitDx=0;exitDy=0;entryX=0.5;entryY=0;entryDx=0;entryDy=0;" edge="1" parent="1" source="vILM-5j1iDqQcQwP7x-g-4" target="vILM-5j1iDqQcQwP7x-g-64">
          <mxGeometry width="50" height="50" relative="1" as="geometry">
            <mxPoint x="1357.5" y="-830" as="sourcePoint" />
            <mxPoint x="1407.5" y="-880" as="targetPoint" />
          </mxGeometry>
        </mxCell>
        <mxCell id="vILM-5j1iDqQcQwP7x-g-73" value="&lt;b&gt;YES&lt;/b&gt;" style="text;html=1;align=center;verticalAlign=middle;resizable=0;points=[];autosize=1;strokeColor=none;fillColor=none;" vertex="1" parent="1">
          <mxGeometry x="1043.75" y="-800" width="50" height="30" as="geometry" />
        </mxCell>
        <mxCell id="vILM-5j1iDqQcQwP7x-g-74" value="&lt;b&gt;NO&lt;/b&gt;" style="text;html=1;align=center;verticalAlign=middle;resizable=0;points=[];autosize=1;strokeColor=none;fillColor=none;" vertex="1" parent="1">
          <mxGeometry x="1285.5" y="-800" width="40" height="30" as="geometry" />
        </mxCell>
        <mxCell id="vILM-5j1iDqQcQwP7x-g-75" value="&lt;b&gt;YES&lt;/b&gt;" style="text;html=1;align=center;verticalAlign=middle;resizable=0;points=[];autosize=1;strokeColor=none;fillColor=none;" vertex="1" parent="1">
          <mxGeometry x="1300" y="-690" width="50" height="30" as="geometry" />
        </mxCell>
        <mxCell id="vILM-5j1iDqQcQwP7x-g-78" value="playerThree answers?" style="rhombus;whiteSpace=wrap;html=1;strokeColor=#99CCFF;" vertex="1" parent="1">
          <mxGeometry x="1592.5" y="-580" width="80" height="80" as="geometry" />
        </mxCell>
        <mxCell id="vILM-5j1iDqQcQwP7x-g-79" style="edgeStyle=orthogonalEdgeStyle;rounded=0;orthogonalLoop=1;jettySize=auto;html=1;entryX=0.5;entryY=0;entryDx=0;entryDy=0;" edge="1" parent="1" source="vILM-5j1iDqQcQwP7x-g-80" target="vILM-5j1iDqQcQwP7x-g-83">
          <mxGeometry relative="1" as="geometry" />
        </mxCell>
        <mxCell id="vILM-5j1iDqQcQwP7x-g-80" value="playerThree()" style="rounded=0;whiteSpace=wrap;html=1;strokeColor=light-dark(#0000FF,#EDEDED);" vertex="1" parent="1">
          <mxGeometry x="1436.25" y="-450" width="90" height="50" as="geometry" />
        </mxCell>
        <mxCell id="vILM-5j1iDqQcQwP7x-g-81" value="" style="rounded=0;whiteSpace=wrap;html=1;strokeColor=light-dark(#0000FF,#EDEDED);" vertex="1" parent="1">
          <mxGeometry x="1436.25" y="-460" width="90" height="10" as="geometry" />
        </mxCell>
        <mxCell id="vILM-5j1iDqQcQwP7x-g-82" style="edgeStyle=orthogonalEdgeStyle;rounded=0;orthogonalLoop=1;jettySize=auto;html=1;entryX=0.5;entryY=0;entryDx=0;entryDy=0;" edge="1" parent="1" source="vILM-5j1iDqQcQwP7x-g-83" target="vILM-5j1iDqQcQwP7x-g-84">
          <mxGeometry relative="1" as="geometry" />
        </mxCell>
        <mxCell id="vILM-5j1iDqQcQwP7x-g-83" value="input playerThree choose next clue" style="shape=parallelogram;perimeter=parallelogramPerimeter;whiteSpace=wrap;html=1;fixedSize=1;strokeColor=#DC7135;" vertex="1" parent="1">
          <mxGeometry x="1370" y="-380" width="222.5" height="32.5" as="geometry" />
        </mxCell>
        <mxCell id="vILM-5j1iDqQcQwP7x-g-84" value="output host announces next clue" style="shape=parallelogram;perimeter=parallelogramPerimeter;whiteSpace=wrap;html=1;fixedSize=1;strokeColor=#DC7135;" vertex="1" parent="1">
          <mxGeometry x="1378.75" y="-325" width="205" height="30" as="geometry" />
        </mxCell>
        <mxCell id="vILM-5j1iDqQcQwP7x-g-85" value="" style="edgeStyle=segmentEdgeStyle;endArrow=classic;html=1;curved=0;rounded=0;endSize=8;startSize=8;exitX=0;exitY=0.5;exitDx=0;exitDy=0;entryX=0.5;entryY=0;entryDx=0;entryDy=0;" edge="1" parent="1" source="vILM-5j1iDqQcQwP7x-g-78" target="vILM-5j1iDqQcQwP7x-g-81">
          <mxGeometry width="50" height="50" relative="1" as="geometry">
            <mxPoint x="1482.5" y="-510" as="sourcePoint" />
            <mxPoint x="1532.5" y="-560" as="targetPoint" />
          </mxGeometry>
        </mxCell>
        <mxCell id="vILM-5j1iDqQcQwP7x-g-86" value="&lt;b&gt;YES&lt;/b&gt;" style="text;html=1;align=center;verticalAlign=middle;resizable=0;points=[];autosize=1;strokeColor=none;fillColor=none;" vertex="1" parent="1">
          <mxGeometry x="1522.5" y="-570" width="50" height="30" as="geometry" />
        </mxCell>
        <mxCell id="vILM-5j1iDqQcQwP7x-g-87" value="" style="edgeStyle=segmentEdgeStyle;endArrow=classic;html=1;curved=0;rounded=0;endSize=8;startSize=8;exitX=1;exitY=0.5;exitDx=0;exitDy=0;entryX=0.5;entryY=0;entryDx=0;entryDy=0;" edge="1" parent="1" source="vILM-5j1iDqQcQwP7x-g-64" target="vILM-5j1iDqQcQwP7x-g-78">
          <mxGeometry width="50" height="50" relative="1" as="geometry">
            <mxPoint x="1477.5" y="-660" as="sourcePoint" />
            <mxPoint x="1660.5" y="-590" as="targetPoint" />
          </mxGeometry>
        </mxCell>
        <mxCell id="vILM-5j1iDqQcQwP7x-g-88" value="&lt;b&gt;NO&lt;/b&gt;" style="text;html=1;align=center;verticalAlign=middle;resizable=0;points=[];autosize=1;strokeColor=none;fillColor=none;" vertex="1" parent="1">
          <mxGeometry x="1535.5" y="-690" width="40" height="30" as="geometry" />
        </mxCell>
        <mxCell id="vILM-5j1iDqQcQwP7x-g-89" value="" style="edgeStyle=segmentEdgeStyle;endArrow=classic;html=1;curved=0;rounded=0;endSize=8;startSize=8;exitX=1;exitY=0.5;exitDx=0;exitDy=0;entryX=0.5;entryY=0;entryDx=0;entryDy=0;" edge="1" parent="1" source="vILM-5j1iDqQcQwP7x-g-78" target="vILM-5j1iDqQcQwP7x-g-91">
          <mxGeometry width="50" height="50" relative="1" as="geometry">
            <mxPoint x="1797.5" y="-480" as="sourcePoint" />
            <mxPoint x="1797.5" y="-440" as="targetPoint" />
          </mxGeometry>
        </mxCell>
        <mxCell id="vILM-5j1iDqQcQwP7x-g-90" value="&lt;b&gt;NO&lt;/b&gt;" style="text;html=1;align=center;verticalAlign=middle;resizable=0;points=[];autosize=1;strokeColor=none;fillColor=none;" vertex="1" parent="1">
          <mxGeometry x="1707.5" y="-570" width="40" height="30" as="geometry" />
        </mxCell>
        <mxCell id="vILM-5j1iDqQcQwP7x-g-91" value="output host announces next clue" style="shape=parallelogram;perimeter=parallelogramPerimeter;whiteSpace=wrap;html=1;fixedSize=1;strokeColor=#DC7135;" vertex="1" parent="1">
          <mxGeometry x="1690.5" y="-420" width="205" height="30" as="geometry" />
        </mxCell>
        <mxCell id="vILM-5j1iDqQcQwP7x-g-93" value="Return" style="strokeWidth=2;html=1;shape=mxgraph.flowchart.terminator;whiteSpace=wrap;strokeColor=#0000FF;" vertex="1" parent="1">
          <mxGeometry x="1352" y="-210" width="81" height="30" as="geometry" />
        </mxCell>
        <mxCell id="vILM-5j1iDqQcQwP7x-g-94" value="" style="line;strokeWidth=2;html=1;" vertex="1" parent="1">
          <mxGeometry x="987.5" y="-265" width="810" height="10" as="geometry" />
        </mxCell>
        <mxCell id="vILM-5j1iDqQcQwP7x-g-95" style="edgeStyle=orthogonalEdgeStyle;rounded=0;orthogonalLoop=1;jettySize=auto;html=1;entryX=0.5;entryY=0;entryDx=0;entryDy=0;entryPerimeter=0;" edge="1" parent="1" source="vILM-5j1iDqQcQwP7x-g-94" target="vILM-5j1iDqQcQwP7x-g-93">
          <mxGeometry relative="1" as="geometry" />
        </mxCell>
        <mxCell id="vILM-5j1iDqQcQwP7x-g-96" style="edgeStyle=orthogonalEdgeStyle;rounded=0;orthogonalLoop=1;jettySize=auto;html=1;entryX=0.002;entryY=1.22;entryDx=0;entryDy=0;entryPerimeter=0;" edge="1" parent="1" source="vILM-5j1iDqQcQwP7x-g-60" target="vILM-5j1iDqQcQwP7x-g-94">
          <mxGeometry relative="1" as="geometry" />
        </mxCell>
        <mxCell id="vILM-5j1iDqQcQwP7x-g-97" style="edgeStyle=orthogonalEdgeStyle;rounded=0;orthogonalLoop=1;jettySize=auto;html=1;entryX=0.335;entryY=0.74;entryDx=0;entryDy=0;entryPerimeter=0;" edge="1" parent="1" source="vILM-5j1iDqQcQwP7x-g-70" target="vILM-5j1iDqQcQwP7x-g-94">
          <mxGeometry relative="1" as="geometry" />
        </mxCell>
        <mxCell id="vILM-5j1iDqQcQwP7x-g-98" style="edgeStyle=orthogonalEdgeStyle;rounded=0;orthogonalLoop=1;jettySize=auto;html=1;entryX=0.607;entryY=0.42;entryDx=0;entryDy=0;entryPerimeter=0;" edge="1" parent="1" source="vILM-5j1iDqQcQwP7x-g-84" target="vILM-5j1iDqQcQwP7x-g-94">
          <mxGeometry relative="1" as="geometry" />
        </mxCell>
        <mxCell id="vILM-5j1iDqQcQwP7x-g-99" style="edgeStyle=orthogonalEdgeStyle;rounded=0;orthogonalLoop=1;jettySize=auto;html=1;entryX=0.991;entryY=0.26;entryDx=0;entryDy=0;entryPerimeter=0;" edge="1" parent="1" source="vILM-5j1iDqQcQwP7x-g-91" target="vILM-5j1iDqQcQwP7x-g-94">
          <mxGeometry relative="1" as="geometry" />
        </mxCell>
        <mxCell id="vILM-5j1iDqQcQwP7x-g-198" style="edgeStyle=orthogonalEdgeStyle;rounded=0;orthogonalLoop=1;jettySize=auto;html=1;entryX=0.5;entryY=0;entryDx=0;entryDy=0;" edge="1" parent="1" source="vILM-5j1iDqQcQwP7x-g-100" target="vILM-5j1iDqQcQwP7x-g-105">
          <mxGeometry relative="1" as="geometry" />
        </mxCell>
        <mxCell id="vILM-5j1iDqQcQwP7x-g-100" value="gamePlay()" style="rounded=0;whiteSpace=wrap;html=1;strokeColor=#0000FF;" vertex="1" parent="1">
          <mxGeometry x="431.5" y="-750" width="120" height="60" as="geometry" />
        </mxCell>
        <mxCell id="vILM-5j1iDqQcQwP7x-g-102" value="" style="rounded=0;whiteSpace=wrap;html=1;strokeColor=#0000FF;" vertex="1" parent="1">
          <mxGeometry x="431.5" y="-760" width="120" height="10" as="geometry" />
        </mxCell>
        <mxCell id="vILM-5j1iDqQcQwP7x-g-104" style="edgeStyle=orthogonalEdgeStyle;rounded=0;orthogonalLoop=1;jettySize=auto;html=1;entryX=0.5;entryY=0;entryDx=0;entryDy=0;" edge="1" parent="1" source="vILM-5j1iDqQcQwP7x-g-103" target="vILM-5j1iDqQcQwP7x-g-4">
          <mxGeometry relative="1" as="geometry" />
        </mxCell>
        <mxCell id="vILM-5j1iDqQcQwP7x-g-103" value="gamePlay()" style="strokeWidth=2;html=1;shape=mxgraph.flowchart.terminator;whiteSpace=wrap;strokeColor=#0000FF;" vertex="1" parent="1">
          <mxGeometry x="1141.5" y="-880" width="92" height="30" as="geometry" />
        </mxCell>
        <mxCell id="vILM-5j1iDqQcQwP7x-g-201" style="edgeStyle=orthogonalEdgeStyle;rounded=0;orthogonalLoop=1;jettySize=auto;html=1;entryX=0.5;entryY=0;entryDx=0;entryDy=0;" edge="1" parent="1" source="vILM-5j1iDqQcQwP7x-g-105" target="vILM-5j1iDqQcQwP7x-g-107">
          <mxGeometry relative="1" as="geometry" />
        </mxCell>
        <mxCell id="vILM-5j1iDqQcQwP7x-g-105" value="clueNo51?" style="rhombus;whiteSpace=wrap;html=1;strokeColor=#99CCFF;" vertex="1" parent="1">
          <mxGeometry x="452" y="-660" width="80" height="80" as="geometry" />
        </mxCell>
        <mxCell id="vILM-5j1iDqQcQwP7x-g-203" style="edgeStyle=orthogonalEdgeStyle;rounded=0;orthogonalLoop=1;jettySize=auto;html=1;entryX=0.5;entryY=0;entryDx=0;entryDy=0;" edge="1" parent="1" source="vILM-5j1iDqQcQwP7x-g-107" target="vILM-5j1iDqQcQwP7x-g-191">
          <mxGeometry relative="1" as="geometry" />
        </mxCell>
        <mxCell id="vILM-5j1iDqQcQwP7x-g-107" value="output host announces clueFinal" style="shape=parallelogram;perimeter=parallelogramPerimeter;whiteSpace=wrap;html=1;fixedSize=1;strokeColor=#DC7135;" vertex="1" parent="1">
          <mxGeometry x="380" y="-542.5" width="222" height="35" as="geometry" />
        </mxCell>
        <mxCell id="vILM-5j1iDqQcQwP7x-g-204" style="edgeStyle=orthogonalEdgeStyle;rounded=0;orthogonalLoop=1;jettySize=auto;html=1;" edge="1" parent="1" source="vILM-5j1iDqQcQwP7x-g-191" target="vILM-5j1iDqQcQwP7x-g-192">
          <mxGeometry relative="1" as="geometry" />
        </mxCell>
        <mxCell id="vILM-5j1iDqQcQwP7x-g-191" value="input playerOne finalWager" style="shape=parallelogram;perimeter=parallelogramPerimeter;whiteSpace=wrap;html=1;fixedSize=1;strokeColor=#DC7135;" vertex="1" parent="1">
          <mxGeometry x="382" y="-470" width="220" height="40" as="geometry" />
        </mxCell>
        <mxCell id="vILM-5j1iDqQcQwP7x-g-205" style="edgeStyle=orthogonalEdgeStyle;rounded=0;orthogonalLoop=1;jettySize=auto;html=1;entryX=0.5;entryY=0;entryDx=0;entryDy=0;" edge="1" parent="1" source="vILM-5j1iDqQcQwP7x-g-192" target="vILM-5j1iDqQcQwP7x-g-193">
          <mxGeometry relative="1" as="geometry" />
        </mxCell>
        <mxCell id="vILM-5j1iDqQcQwP7x-g-192" value="input playerTwo finalWager" style="shape=parallelogram;perimeter=parallelogramPerimeter;whiteSpace=wrap;html=1;fixedSize=1;strokeColor=#DC7135;" vertex="1" parent="1">
          <mxGeometry x="381" y="-390" width="220" height="40" as="geometry" />
        </mxCell>
        <mxCell id="vILM-5j1iDqQcQwP7x-g-292" style="edgeStyle=orthogonalEdgeStyle;rounded=0;orthogonalLoop=1;jettySize=auto;html=1;entryX=0.5;entryY=0;entryDx=0;entryDy=0;" edge="1" parent="1" source="vILM-5j1iDqQcQwP7x-g-193" target="vILM-5j1iDqQcQwP7x-g-291">
          <mxGeometry relative="1" as="geometry" />
        </mxCell>
        <mxCell id="vILM-5j1iDqQcQwP7x-g-193" value="input playerThree finalWager" style="shape=parallelogram;perimeter=parallelogramPerimeter;whiteSpace=wrap;html=1;fixedSize=1;strokeColor=#DC7135;" vertex="1" parent="1">
          <mxGeometry x="381" y="-310" width="220" height="40" as="geometry" />
        </mxCell>
        <mxCell id="vILM-5j1iDqQcQwP7x-g-199" value="" style="edgeStyle=elbowEdgeStyle;elbow=horizontal;endArrow=classic;html=1;curved=0;rounded=0;endSize=8;startSize=8;exitX=1;exitY=0.5;exitDx=0;exitDy=0;" edge="1" parent="1" source="vILM-5j1iDqQcQwP7x-g-105">
          <mxGeometry width="50" height="50" relative="1" as="geometry">
            <mxPoint x="677" y="-680" as="sourcePoint" />
            <mxPoint x="492" y="-780" as="targetPoint" />
            <Array as="points">
              <mxPoint x="677" y="-710" />
            </Array>
          </mxGeometry>
        </mxCell>
        <mxCell id="vILM-5j1iDqQcQwP7x-g-200" value="&lt;b&gt;NO&lt;/b&gt;" style="text;html=1;align=center;verticalAlign=middle;resizable=0;points=[];autosize=1;strokeColor=none;fillColor=none;" vertex="1" parent="1">
          <mxGeometry x="627" y="-710" width="40" height="30" as="geometry" />
        </mxCell>
        <mxCell id="vILM-5j1iDqQcQwP7x-g-202" value="&lt;b&gt;YES&lt;/b&gt;" style="text;html=1;align=center;verticalAlign=middle;resizable=0;points=[];autosize=1;strokeColor=none;fillColor=none;" vertex="1" parent="1">
          <mxGeometry x="492" y="-590" width="50" height="30" as="geometry" />
        </mxCell>
        <mxCell id="vILM-5j1iDqQcQwP7x-g-248" value="answer correct?" style="rhombus;whiteSpace=wrap;html=1;strokeColor=#99CCFF;" vertex="1" parent="1">
          <mxGeometry x="-230" y="-975" width="80" height="80" as="geometry" />
        </mxCell>
        <mxCell id="vILM-5j1iDqQcQwP7x-g-249" value="calculate playerOnePoints = playerOnePoints + finalWager" style="rounded=0;whiteSpace=wrap;html=1;" vertex="1" parent="1">
          <mxGeometry x="-380" y="-865" width="170" height="40" as="geometry" />
        </mxCell>
        <mxCell id="vILM-5j1iDqQcQwP7x-g-250" value="calculate playerOnePoints = playerOnePoints - finalWager" style="rounded=0;whiteSpace=wrap;html=1;" vertex="1" parent="1">
          <mxGeometry x="-170" y="-865" width="170" height="40" as="geometry" />
        </mxCell>
        <mxCell id="vILM-5j1iDqQcQwP7x-g-251" value="" style="edgeStyle=orthogonalEdgeStyle;rounded=0;orthogonalLoop=1;jettySize=auto;html=1;" edge="1" parent="1" source="vILM-5j1iDqQcQwP7x-g-252" target="vILM-5j1iDqQcQwP7x-g-253">
          <mxGeometry relative="1" as="geometry" />
        </mxCell>
        <mxCell id="vILM-5j1iDqQcQwP7x-g-252" value="output playerOnePoints" style="shape=parallelogram;perimeter=parallelogramPerimeter;whiteSpace=wrap;html=1;fixedSize=1;strokeColor=#DC7135;" vertex="1" parent="1">
          <mxGeometry x="-270" y="-760" width="160" height="30" as="geometry" />
        </mxCell>
        <mxCell id="vILM-5j1iDqQcQwP7x-g-253" value="Return" style="strokeWidth=2;html=1;shape=mxgraph.flowchart.terminator;whiteSpace=wrap;strokeColor=#0000FF;" vertex="1" parent="1">
          <mxGeometry x="-240" y="-685" width="100" height="25" as="geometry" />
        </mxCell>
        <mxCell id="vILM-5j1iDqQcQwP7x-g-254" value="" style="edgeStyle=segmentEdgeStyle;endArrow=classic;html=1;curved=0;rounded=0;endSize=8;startSize=8;exitX=0;exitY=0.5;exitDx=0;exitDy=0;entryX=0.5;entryY=0;entryDx=0;entryDy=0;" edge="1" parent="1" source="vILM-5j1iDqQcQwP7x-g-248" target="vILM-5j1iDqQcQwP7x-g-249">
          <mxGeometry width="50" height="50" relative="1" as="geometry">
            <mxPoint x="-350" y="-950" as="sourcePoint" />
            <mxPoint x="-300" y="-1000" as="targetPoint" />
          </mxGeometry>
        </mxCell>
        <mxCell id="vILM-5j1iDqQcQwP7x-g-255" style="edgeStyle=orthogonalEdgeStyle;rounded=0;orthogonalLoop=1;jettySize=auto;html=1;entryX=0.5;entryY=0;entryDx=0;entryDy=0;" edge="1" parent="1" source="vILM-5j1iDqQcQwP7x-g-256" target="vILM-5j1iDqQcQwP7x-g-252">
          <mxGeometry relative="1" as="geometry" />
        </mxCell>
        <mxCell id="vILM-5j1iDqQcQwP7x-g-256" value="" style="shape=partialRectangle;whiteSpace=wrap;html=1;bottom=1;right=1;left=1;top=0;fillColor=none;routingCenterX=-0.5;" vertex="1" parent="1">
          <mxGeometry x="-290" y="-820" width="200" height="30" as="geometry" />
        </mxCell>
        <mxCell id="vILM-5j1iDqQcQwP7x-g-257" style="edgeStyle=orthogonalEdgeStyle;rounded=0;orthogonalLoop=1;jettySize=auto;html=1;entryX=0.5;entryY=0;entryDx=0;entryDy=0;" edge="1" parent="1" source="vILM-5j1iDqQcQwP7x-g-258" target="vILM-5j1iDqQcQwP7x-g-248">
          <mxGeometry relative="1" as="geometry" />
        </mxCell>
        <mxCell id="vILM-5j1iDqQcQwP7x-g-258" value="playerOneFinal()" style="strokeWidth=2;html=1;shape=mxgraph.flowchart.terminator;whiteSpace=wrap;strokeColor=#0000FF;" vertex="1" parent="1">
          <mxGeometry x="-250" y="-1045" width="120" height="30" as="geometry" />
        </mxCell>
        <mxCell id="vILM-5j1iDqQcQwP7x-g-259" value="" style="edgeStyle=segmentEdgeStyle;endArrow=classic;html=1;curved=0;rounded=0;endSize=8;startSize=8;exitX=1;exitY=0.5;exitDx=0;exitDy=0;entryX=0.5;entryY=0;entryDx=0;entryDy=0;" edge="1" parent="1" source="vILM-5j1iDqQcQwP7x-g-248" target="vILM-5j1iDqQcQwP7x-g-250">
          <mxGeometry width="50" height="50" relative="1" as="geometry">
            <mxPoint x="-100" y="-930" as="sourcePoint" />
            <mxPoint x="-50" y="-980" as="targetPoint" />
          </mxGeometry>
        </mxCell>
        <mxCell id="vILM-5j1iDqQcQwP7x-g-260" value="YES" style="text;html=1;align=center;verticalAlign=middle;resizable=0;points=[];autosize=1;strokeColor=none;fillColor=none;fontStyle=1" vertex="1" parent="1">
          <mxGeometry x="-280" y="-975" width="50" height="30" as="geometry" />
        </mxCell>
        <mxCell id="vILM-5j1iDqQcQwP7x-g-261" value="&lt;b&gt;NO&lt;/b&gt;" style="text;html=1;align=center;verticalAlign=middle;resizable=0;points=[];autosize=1;strokeColor=none;fillColor=none;" vertex="1" parent="1">
          <mxGeometry x="-150" y="-975" width="40" height="30" as="geometry" />
        </mxCell>
        <mxCell id="vILM-5j1iDqQcQwP7x-g-262" value="answer correct?" style="rhombus;whiteSpace=wrap;html=1;strokeColor=#99CCFF;" vertex="1" parent="1">
          <mxGeometry x="-230" y="-545" width="80" height="80" as="geometry" />
        </mxCell>
        <mxCell id="vILM-5j1iDqQcQwP7x-g-263" value="calculate playerTwoPoints = playerTwoPoints + finalWager" style="rounded=0;whiteSpace=wrap;html=1;" vertex="1" parent="1">
          <mxGeometry x="-380" y="-435" width="170" height="40" as="geometry" />
        </mxCell>
        <mxCell id="vILM-5j1iDqQcQwP7x-g-264" value="calculate playerTwoPoints = playerTwoPoints - finalWager" style="rounded=0;whiteSpace=wrap;html=1;" vertex="1" parent="1">
          <mxGeometry x="-170" y="-435" width="170" height="40" as="geometry" />
        </mxCell>
        <mxCell id="vILM-5j1iDqQcQwP7x-g-265" value="" style="edgeStyle=orthogonalEdgeStyle;rounded=0;orthogonalLoop=1;jettySize=auto;html=1;" edge="1" parent="1" source="vILM-5j1iDqQcQwP7x-g-266" target="vILM-5j1iDqQcQwP7x-g-267">
          <mxGeometry relative="1" as="geometry" />
        </mxCell>
        <mxCell id="vILM-5j1iDqQcQwP7x-g-266" value="output playerTwoPoints" style="shape=parallelogram;perimeter=parallelogramPerimeter;whiteSpace=wrap;html=1;fixedSize=1;strokeColor=#DC7135;" vertex="1" parent="1">
          <mxGeometry x="-270" y="-330" width="160" height="30" as="geometry" />
        </mxCell>
        <mxCell id="vILM-5j1iDqQcQwP7x-g-267" value="Return" style="strokeWidth=2;html=1;shape=mxgraph.flowchart.terminator;whiteSpace=wrap;strokeColor=#0000FF;" vertex="1" parent="1">
          <mxGeometry x="-240" y="-255" width="100" height="25" as="geometry" />
        </mxCell>
        <mxCell id="vILM-5j1iDqQcQwP7x-g-268" value="" style="edgeStyle=segmentEdgeStyle;endArrow=classic;html=1;curved=0;rounded=0;endSize=8;startSize=8;exitX=0;exitY=0.5;exitDx=0;exitDy=0;entryX=0.5;entryY=0;entryDx=0;entryDy=0;" edge="1" parent="1" source="vILM-5j1iDqQcQwP7x-g-262" target="vILM-5j1iDqQcQwP7x-g-263">
          <mxGeometry width="50" height="50" relative="1" as="geometry">
            <mxPoint x="-350" y="-520" as="sourcePoint" />
            <mxPoint x="-300" y="-570" as="targetPoint" />
          </mxGeometry>
        </mxCell>
        <mxCell id="vILM-5j1iDqQcQwP7x-g-269" style="edgeStyle=orthogonalEdgeStyle;rounded=0;orthogonalLoop=1;jettySize=auto;html=1;entryX=0.5;entryY=0;entryDx=0;entryDy=0;" edge="1" parent="1" source="vILM-5j1iDqQcQwP7x-g-270" target="vILM-5j1iDqQcQwP7x-g-266">
          <mxGeometry relative="1" as="geometry" />
        </mxCell>
        <mxCell id="vILM-5j1iDqQcQwP7x-g-270" value="" style="shape=partialRectangle;whiteSpace=wrap;html=1;bottom=1;right=1;left=1;top=0;fillColor=none;routingCenterX=-0.5;" vertex="1" parent="1">
          <mxGeometry x="-290" y="-390" width="200" height="30" as="geometry" />
        </mxCell>
        <mxCell id="vILM-5j1iDqQcQwP7x-g-271" style="edgeStyle=orthogonalEdgeStyle;rounded=0;orthogonalLoop=1;jettySize=auto;html=1;entryX=0.5;entryY=0;entryDx=0;entryDy=0;" edge="1" parent="1" source="vILM-5j1iDqQcQwP7x-g-272" target="vILM-5j1iDqQcQwP7x-g-262">
          <mxGeometry relative="1" as="geometry" />
        </mxCell>
        <mxCell id="vILM-5j1iDqQcQwP7x-g-272" value="playerTwoFinal()" style="strokeWidth=2;html=1;shape=mxgraph.flowchart.terminator;whiteSpace=wrap;strokeColor=#0000FF;" vertex="1" parent="1">
          <mxGeometry x="-245" y="-620" width="110" height="30" as="geometry" />
        </mxCell>
        <mxCell id="vILM-5j1iDqQcQwP7x-g-273" value="" style="edgeStyle=segmentEdgeStyle;endArrow=classic;html=1;curved=0;rounded=0;endSize=8;startSize=8;exitX=1;exitY=0.5;exitDx=0;exitDy=0;entryX=0.5;entryY=0;entryDx=0;entryDy=0;" edge="1" parent="1" source="vILM-5j1iDqQcQwP7x-g-262" target="vILM-5j1iDqQcQwP7x-g-264">
          <mxGeometry width="50" height="50" relative="1" as="geometry">
            <mxPoint x="-100" y="-500" as="sourcePoint" />
            <mxPoint x="-50" y="-550" as="targetPoint" />
          </mxGeometry>
        </mxCell>
        <mxCell id="vILM-5j1iDqQcQwP7x-g-274" value="YES" style="text;html=1;align=center;verticalAlign=middle;resizable=0;points=[];autosize=1;strokeColor=none;fillColor=none;fontStyle=1" vertex="1" parent="1">
          <mxGeometry x="-280" y="-545" width="50" height="30" as="geometry" />
        </mxCell>
        <mxCell id="vILM-5j1iDqQcQwP7x-g-275" value="&lt;b&gt;NO&lt;/b&gt;" style="text;html=1;align=center;verticalAlign=middle;resizable=0;points=[];autosize=1;strokeColor=none;fillColor=none;" vertex="1" parent="1">
          <mxGeometry x="-150" y="-545" width="40" height="30" as="geometry" />
        </mxCell>
        <mxCell id="vILM-5j1iDqQcQwP7x-g-276" value="answer correct?" style="rhombus;whiteSpace=wrap;html=1;strokeColor=#99CCFF;" vertex="1" parent="1">
          <mxGeometry x="-230" y="-125" width="80" height="80" as="geometry" />
        </mxCell>
        <mxCell id="vILM-5j1iDqQcQwP7x-g-277" value="calculate playerThreePoints = playerThreePoints + finalWager" style="rounded=0;whiteSpace=wrap;html=1;" vertex="1" parent="1">
          <mxGeometry x="-380" y="-15" width="170" height="40" as="geometry" />
        </mxCell>
        <mxCell id="vILM-5j1iDqQcQwP7x-g-278" value="calculate playerThreePoints = playerThreePoints - finalWager" style="rounded=0;whiteSpace=wrap;html=1;" vertex="1" parent="1">
          <mxGeometry x="-170" y="-15" width="170" height="40" as="geometry" />
        </mxCell>
        <mxCell id="vILM-5j1iDqQcQwP7x-g-279" value="" style="edgeStyle=orthogonalEdgeStyle;rounded=0;orthogonalLoop=1;jettySize=auto;html=1;" edge="1" parent="1" source="vILM-5j1iDqQcQwP7x-g-280" target="vILM-5j1iDqQcQwP7x-g-281">
          <mxGeometry relative="1" as="geometry" />
        </mxCell>
        <mxCell id="vILM-5j1iDqQcQwP7x-g-280" value="output playerThreePoints" style="shape=parallelogram;perimeter=parallelogramPerimeter;whiteSpace=wrap;html=1;fixedSize=1;strokeColor=#DC7135;" vertex="1" parent="1">
          <mxGeometry x="-270" y="90" width="160" height="30" as="geometry" />
        </mxCell>
        <mxCell id="vILM-5j1iDqQcQwP7x-g-281" value="Return" style="strokeWidth=2;html=1;shape=mxgraph.flowchart.terminator;whiteSpace=wrap;strokeColor=#0000FF;" vertex="1" parent="1">
          <mxGeometry x="-240" y="165" width="100" height="25" as="geometry" />
        </mxCell>
        <mxCell id="vILM-5j1iDqQcQwP7x-g-282" value="" style="edgeStyle=segmentEdgeStyle;endArrow=classic;html=1;curved=0;rounded=0;endSize=8;startSize=8;exitX=0;exitY=0.5;exitDx=0;exitDy=0;entryX=0.5;entryY=0;entryDx=0;entryDy=0;" edge="1" parent="1" source="vILM-5j1iDqQcQwP7x-g-276" target="vILM-5j1iDqQcQwP7x-g-277">
          <mxGeometry width="50" height="50" relative="1" as="geometry">
            <mxPoint x="-350" y="-100" as="sourcePoint" />
            <mxPoint x="-300" y="-150" as="targetPoint" />
          </mxGeometry>
        </mxCell>
        <mxCell id="vILM-5j1iDqQcQwP7x-g-283" style="edgeStyle=orthogonalEdgeStyle;rounded=0;orthogonalLoop=1;jettySize=auto;html=1;entryX=0.5;entryY=0;entryDx=0;entryDy=0;" edge="1" parent="1" source="vILM-5j1iDqQcQwP7x-g-284" target="vILM-5j1iDqQcQwP7x-g-280">
          <mxGeometry relative="1" as="geometry" />
        </mxCell>
        <mxCell id="vILM-5j1iDqQcQwP7x-g-284" value="" style="shape=partialRectangle;whiteSpace=wrap;html=1;bottom=1;right=1;left=1;top=0;fillColor=none;routingCenterX=-0.5;" vertex="1" parent="1">
          <mxGeometry x="-290" y="30" width="200" height="30" as="geometry" />
        </mxCell>
        <mxCell id="vILM-5j1iDqQcQwP7x-g-285" style="edgeStyle=orthogonalEdgeStyle;rounded=0;orthogonalLoop=1;jettySize=auto;html=1;entryX=0.5;entryY=0;entryDx=0;entryDy=0;" edge="1" parent="1" source="vILM-5j1iDqQcQwP7x-g-286" target="vILM-5j1iDqQcQwP7x-g-276">
          <mxGeometry relative="1" as="geometry" />
        </mxCell>
        <mxCell id="vILM-5j1iDqQcQwP7x-g-286" value="playerThreeFinal()" style="strokeWidth=2;html=1;shape=mxgraph.flowchart.terminator;whiteSpace=wrap;strokeColor=#0000FF;" vertex="1" parent="1">
          <mxGeometry x="-250" y="-195" width="120" height="30" as="geometry" />
        </mxCell>
        <mxCell id="vILM-5j1iDqQcQwP7x-g-287" value="" style="edgeStyle=segmentEdgeStyle;endArrow=classic;html=1;curved=0;rounded=0;endSize=8;startSize=8;exitX=1;exitY=0.5;exitDx=0;exitDy=0;entryX=0.5;entryY=0;entryDx=0;entryDy=0;" edge="1" parent="1" source="vILM-5j1iDqQcQwP7x-g-276" target="vILM-5j1iDqQcQwP7x-g-278">
          <mxGeometry width="50" height="50" relative="1" as="geometry">
            <mxPoint x="-100" y="-80" as="sourcePoint" />
            <mxPoint x="-50" y="-130" as="targetPoint" />
          </mxGeometry>
        </mxCell>
        <mxCell id="vILM-5j1iDqQcQwP7x-g-288" value="YES" style="text;html=1;align=center;verticalAlign=middle;resizable=0;points=[];autosize=1;strokeColor=none;fillColor=none;fontStyle=1" vertex="1" parent="1">
          <mxGeometry x="-280" y="-125" width="50" height="30" as="geometry" />
        </mxCell>
        <mxCell id="vILM-5j1iDqQcQwP7x-g-289" value="&lt;b&gt;NO&lt;/b&gt;" style="text;html=1;align=center;verticalAlign=middle;resizable=0;points=[];autosize=1;strokeColor=none;fillColor=none;" vertex="1" parent="1">
          <mxGeometry x="-150" y="-125" width="40" height="30" as="geometry" />
        </mxCell>
        <mxCell id="vILM-5j1iDqQcQwP7x-g-297" style="edgeStyle=orthogonalEdgeStyle;rounded=0;orthogonalLoop=1;jettySize=auto;html=1;entryX=0.5;entryY=0;entryDx=0;entryDy=0;" edge="1" parent="1" source="vILM-5j1iDqQcQwP7x-g-290" target="vILM-5j1iDqQcQwP7x-g-294">
          <mxGeometry relative="1" as="geometry" />
        </mxCell>
        <mxCell id="vILM-5j1iDqQcQwP7x-g-290" value="playerOneFinal()" style="rounded=0;whiteSpace=wrap;html=1;strokeColor=#0000FF;" vertex="1" parent="1">
          <mxGeometry x="431" y="-217.5" width="120" height="60" as="geometry" />
        </mxCell>
        <mxCell id="vILM-5j1iDqQcQwP7x-g-291" value="" style="rounded=0;whiteSpace=wrap;html=1;strokeColor=#0000FF;" vertex="1" parent="1">
          <mxGeometry x="431" y="-232.5" width="120" height="15" as="geometry" />
        </mxCell>
        <mxCell id="vILM-5j1iDqQcQwP7x-g-298" style="edgeStyle=orthogonalEdgeStyle;rounded=0;orthogonalLoop=1;jettySize=auto;html=1;entryX=0.5;entryY=0;entryDx=0;entryDy=0;" edge="1" parent="1" source="vILM-5j1iDqQcQwP7x-g-293" target="vILM-5j1iDqQcQwP7x-g-296">
          <mxGeometry relative="1" as="geometry" />
        </mxCell>
        <mxCell id="vILM-5j1iDqQcQwP7x-g-293" value="playerTwoFinal()" style="rounded=0;whiteSpace=wrap;html=1;strokeColor=#0000FF;" vertex="1" parent="1">
          <mxGeometry x="431" y="-105" width="120" height="60" as="geometry" />
        </mxCell>
        <mxCell id="vILM-5j1iDqQcQwP7x-g-294" value="" style="rounded=0;whiteSpace=wrap;html=1;strokeColor=#0000FF;" vertex="1" parent="1">
          <mxGeometry x="431" y="-120" width="120" height="15" as="geometry" />
        </mxCell>
        <mxCell id="vILM-5j1iDqQcQwP7x-g-300" style="edgeStyle=orthogonalEdgeStyle;rounded=0;orthogonalLoop=1;jettySize=auto;html=1;entryX=0.5;entryY=0;entryDx=0;entryDy=0;" edge="1" parent="1" source="vILM-5j1iDqQcQwP7x-g-295" target="vILM-5j1iDqQcQwP7x-g-299">
          <mxGeometry relative="1" as="geometry" />
        </mxCell>
        <mxCell id="vILM-5j1iDqQcQwP7x-g-295" value="playerThreeFinal()" style="rounded=0;whiteSpace=wrap;html=1;strokeColor=#0000FF;" vertex="1" parent="1">
          <mxGeometry x="432" width="120" height="60" as="geometry" />
        </mxCell>
        <mxCell id="vILM-5j1iDqQcQwP7x-g-296" value="" style="rounded=0;whiteSpace=wrap;html=1;strokeColor=#0000FF;" vertex="1" parent="1">
          <mxGeometry x="432" y="-15" width="120" height="15" as="geometry" />
        </mxCell>
        <mxCell id="vILM-5j1iDqQcQwP7x-g-299" value="output &quot;Highest Player Points WIns&quot;" style="shape=parallelogram;perimeter=parallelogramPerimeter;whiteSpace=wrap;html=1;fixedSize=1;strokeColor=#DC7135;" vertex="1" parent="1">
          <mxGeometry x="373" y="125" width="238" height="40" as="geometry" />
        </mxCell>
        <mxCell id="vILM-5j1iDqQcQwP7x-g-301" value="End" style="strokeWidth=2;html=1;shape=mxgraph.flowchart.terminator;whiteSpace=wrap;" vertex="1" parent="1">
          <mxGeometry x="453.75" y="220" width="78" height="40" as="geometry" />
        </mxCell>
        <mxCell id="vILM-5j1iDqQcQwP7x-g-302" style="edgeStyle=orthogonalEdgeStyle;rounded=0;orthogonalLoop=1;jettySize=auto;html=1;entryX=0.5;entryY=0;entryDx=0;entryDy=0;entryPerimeter=0;" edge="1" parent="1" source="vILM-5j1iDqQcQwP7x-g-299" target="vILM-5j1iDqQcQwP7x-g-301">
          <mxGeometry relative="1" as="geometry" />
        </mxCell>
        <mxCell id="vILM-5j1iDqQcQwP7x-g-303" style="edgeStyle=orthogonalEdgeStyle;rounded=0;orthogonalLoop=1;jettySize=auto;html=1;entryX=0.5;entryY=0;entryDx=0;entryDy=0;" edge="1" parent="1" source="vILM-5j1iDqQcQwP7x-g-304" target="vILM-5j1iDqQcQwP7x-g-306">
          <mxGeometry relative="1" as="geometry" />
        </mxCell>
        <mxCell id="vILM-5j1iDqQcQwP7x-g-304" value="Main Program = &quot;Jeopardy!&quot;" style="rounded=0;whiteSpace=wrap;html=1;strokeColor=#DC7135;" vertex="1" parent="1">
          <mxGeometry x="-60" y="-1440" width="197" height="60" as="geometry" />
        </mxCell>
        <mxCell id="vILM-5j1iDqQcQwP7x-g-305" value="gamePlay()" style="rounded=0;whiteSpace=wrap;html=1;strokeColor=#DC7135;" vertex="1" parent="1">
          <mxGeometry x="-280" y="-1300" width="120" height="60" as="geometry" />
        </mxCell>
        <mxCell id="vILM-5j1iDqQcQwP7x-g-306" value="playerOneFinal()" style="rounded=0;whiteSpace=wrap;html=1;strokeColor=#DC7135;" vertex="1" parent="1">
          <mxGeometry x="-122.38" y="-1300" width="144" height="60" as="geometry" />
        </mxCell>
        <mxCell id="vILM-5j1iDqQcQwP7x-g-307" value="" style="endArrow=classic;html=1;rounded=0;entryX=0.5;entryY=0;entryDx=0;entryDy=0;" edge="1" parent="1" target="vILM-5j1iDqQcQwP7x-g-305">
          <mxGeometry width="50" height="50" relative="1" as="geometry">
            <mxPoint x="-50" y="-1340" as="sourcePoint" />
            <mxPoint y="-1230" as="targetPoint" />
            <Array as="points">
              <mxPoint x="-220" y="-1340" />
            </Array>
          </mxGeometry>
        </mxCell>
        <mxCell id="vILM-5j1iDqQcQwP7x-g-308" value="playerTwoFinal()" style="rounded=0;whiteSpace=wrap;html=1;strokeColor=#DC7135;" vertex="1" parent="1">
          <mxGeometry x="62.99000000000001" y="-1300" width="120" height="60" as="geometry" />
        </mxCell>
        <mxCell id="vILM-5j1iDqQcQwP7x-g-309" value="" style="endArrow=classic;html=1;rounded=0;" edge="1" parent="1">
          <mxGeometry width="50" height="50" relative="1" as="geometry">
            <mxPoint x="-50" y="-1340" as="sourcePoint" />
            <mxPoint x="120" y="-1300" as="targetPoint" />
            <Array as="points">
              <mxPoint x="120" y="-1340" />
            </Array>
          </mxGeometry>
        </mxCell>
        <mxCell id="vILM-5j1iDqQcQwP7x-g-310" value="playerThreeFinal()" style="rounded=0;whiteSpace=wrap;html=1;strokeColor=#DC7135;" vertex="1" parent="1">
          <mxGeometry x="229.25" y="-1300" width="120" height="60" as="geometry" />
        </mxCell>
        <mxCell id="vILM-5j1iDqQcQwP7x-g-311" value="" style="edgeStyle=segmentEdgeStyle;endArrow=classic;html=1;curved=0;rounded=0;endSize=8;startSize=8;entryX=0.5;entryY=0;entryDx=0;entryDy=0;" edge="1" parent="1" target="vILM-5j1iDqQcQwP7x-g-310">
          <mxGeometry width="50" height="50" relative="1" as="geometry">
            <mxPoint x="120" y="-1340" as="sourcePoint" />
            <mxPoint x="295" y="-1390" as="targetPoint" />
          </mxGeometry>
        </mxCell>
        <mxCell id="vILM-5j1iDqQcQwP7x-g-312" value="playerOne()" style="rounded=0;whiteSpace=wrap;html=1;strokeColor=#DC7135;" vertex="1" parent="1">
          <mxGeometry x="-455.82" y="-1190" width="144" height="60" as="geometry" />
        </mxCell>
        <mxCell id="vILM-5j1iDqQcQwP7x-g-313" value="playerTwo()" style="rounded=0;whiteSpace=wrap;html=1;strokeColor=#DC7135;" vertex="1" parent="1">
          <mxGeometry x="-270.45" y="-1190" width="120" height="60" as="geometry" />
        </mxCell>
        <mxCell id="vILM-5j1iDqQcQwP7x-g-314" value="playerThree()" style="rounded=0;whiteSpace=wrap;html=1;strokeColor=#DC7135;" vertex="1" parent="1">
          <mxGeometry x="-104.19" y="-1190" width="120" height="60" as="geometry" />
        </mxCell>
        <mxCell id="vILM-5j1iDqQcQwP7x-g-315" value="" style="edgeStyle=elbowEdgeStyle;elbow=vertical;endArrow=classic;html=1;curved=0;rounded=0;endSize=8;startSize=8;exitX=0.5;exitY=1;exitDx=0;exitDy=0;entryX=0.5;entryY=0;entryDx=0;entryDy=0;" edge="1" parent="1" source="vILM-5j1iDqQcQwP7x-g-305" target="vILM-5j1iDqQcQwP7x-g-312">
          <mxGeometry width="50" height="50" relative="1" as="geometry">
            <mxPoint x="-90" y="-960" as="sourcePoint" />
            <mxPoint x="-40" y="-1010" as="targetPoint" />
          </mxGeometry>
        </mxCell>
        <mxCell id="vILM-5j1iDqQcQwP7x-g-316" style="edgeStyle=orthogonalEdgeStyle;rounded=0;orthogonalLoop=1;jettySize=auto;html=1;entryX=0.409;entryY=0.074;entryDx=0;entryDy=0;entryPerimeter=0;" edge="1" parent="1" source="vILM-5j1iDqQcQwP7x-g-305" target="vILM-5j1iDqQcQwP7x-g-313">
          <mxGeometry relative="1" as="geometry" />
        </mxCell>
        <mxCell id="vILM-5j1iDqQcQwP7x-g-317" value="" style="edgeStyle=elbowEdgeStyle;elbow=vertical;endArrow=classic;html=1;curved=0;rounded=0;endSize=8;startSize=8;exitX=0.5;exitY=1;exitDx=0;exitDy=0;entryX=0.5;entryY=0;entryDx=0;entryDy=0;" edge="1" parent="1" source="vILM-5j1iDqQcQwP7x-g-305" target="vILM-5j1iDqQcQwP7x-g-314">
          <mxGeometry width="50" height="50" relative="1" as="geometry">
            <mxPoint x="-90" y="-960" as="sourcePoint" />
            <mxPoint x="-40" y="-1010" as="targetPoint" />
          </mxGeometry>
        </mxCell>
      </root>
    </mxGraphModel>
  </diagram>
</mxfile>
